<svg width="329" height="63" viewBox="0 0 329 63" fill="none" xmlns="http://www.w3.org/2000/svg">
<path d="M128.908 12.5403H137.988V15.6383C138.963 14.7906 142.111 11.7806 147.925 11.7806C154.766 11.7806 160.201 16.8245 160.201 24.7446V45.3034H150.61V27.2928C150.61 22.8774 148.454 20.2584 144.552 20.2584C140.772 20.2584 138.498 22.7278 138.498 27.2928V45.3034H128.908V12.5403ZM220.262 28.9212C220.262 19.4698 227.841 11.7806 237.765 11.7806C247.687 11.7806 255.263 19.4698 255.263 28.9212C255.263 38.37 247.686 46.05 237.765 46.05C227.841 46.05 220.262 38.37 220.262 28.9212ZM229.73 28.9212C229.73 33.4468 233.116 37.1707 237.822 37.1707C242.536 37.1707 245.927 33.4468 245.927 28.9212C245.927 24.3929 242.536 20.6717 237.822 20.6717C233.117 20.6717 229.73 24.3929 229.73 28.9212ZM88.5439 28.9277C88.5439 19.4724 96.1261 11.7832 106.042 11.7832C115.969 11.7832 123.549 19.4724 123.549 28.9277C123.549 38.3739 115.969 46.0513 106.042 46.0513C96.1248 46.0526 88.5439 38.3739 88.5439 28.9277ZM98.0115 28.9251C98.0115 33.4533 101.397 37.1772 106.109 37.1772C110.823 37.1772 114.209 33.4533 114.209 28.9251C114.209 24.3929 110.823 20.6756 106.109 20.6756C101.397 20.6756 98.0115 24.3929 98.0115 28.9251ZM301.788 8.91089H311.509V0.573486H301.788V8.91089ZM301.788 45.3034H311.509V12.5403H301.788V45.3034ZM319.006 45.3034H328.731V0.573486H319.006V45.3034ZM270.104 45.3034H260.885V0.573486H270.209V15.141C270.672 14.8011 273.692 11.7806 280.292 11.7806C288.924 11.7806 296.128 19.1837 296.128 28.9277C296.128 38.6534 288.455 46.0565 280.182 46.0565C273.888 46.0565 270.887 43.2958 270.209 42.7814L270.104 45.3034ZM286.275 28.9028C286.275 24.2958 282.778 20.7215 278.094 20.7215C273.438 20.7215 269.863 24.263 269.863 28.929C269.863 33.536 273.389 37.1103 278.083 37.1103C282.732 37.109 286.275 33.5229 286.275 28.9028ZM31.9986 45.3034H43.2438L53.3525 32.3288L59.655 38.7046L45.233 56.7387H56.5176L65.7526 44.7864L83.1348 62.4545H96.7581L71.7753 37.3649L91.4501 12.5403H80.1589L65.6186 31.1859L59.3266 24.8693L75.5014 4.52568H64.2404L53.1936 18.7205L47.1945 12.5403H33.7591L47.2918 26.1853L31.9986 45.3034ZM0.269199 0.573486V45.3034H29.7664V36.9568H10.3044V26.2693H28.8927V18.1786H10.3044V8.90695H29.7664V0.573486H0.269199ZM167.883 0.573486V45.3034H177.32V11.5299H177.749L185.868 45.3047H196.47L204.78 11.5299H205.21V45.3047H214.646V0.573486H199.235L191.563 33.2185H191.221L183.739 0.573486H167.883Z" fill="#ED1B2F"/>
</svg>
