<svg width="33" height="23" viewBox="0 0 33 23" fill="none" xmlns="http://www.w3.org/2000/svg">
<path d="M32.81 0.390137L18.25 14.8901C17.8753 15.2626 17.3684 15.4717 16.84 15.4717C16.3116 15.4717 15.8047 15.2626 15.43 14.8901L0.999993 0.500137C0.955632 0.663177 0.932111 0.831182 0.929993 1.00014V21.0001C0.929993 21.5306 1.14071 22.0393 1.51578 22.4144C1.89085 22.7894 2.39956 23.0001 2.92999 23.0001H30.93C31.4604 23.0001 31.9691 22.7894 32.3442 22.4144C32.7193 22.0393 32.93 21.5306 32.93 21.0001V1.00014C32.922 0.791792 32.8815 0.585972 32.81 0.390137ZM4.29999 21.0001H2.90999V19.5701L10.18 12.3601L11.59 13.7701L4.29999 21.0001ZM30.91 21.0001H29.51L22.22 13.7701L23.63 12.3601L30.9 19.5701L30.91 21.0001Z" fill="#F8F8F8"/>
</svg>
