<svg width="19" height="24" viewBox="0 0 19 24" fill="none" xmlns="http://www.w3.org/2000/svg">
<path d="M7.823 10.2919L9.7025 8.5699C10.2164 8.09813 10.5776 7.48356 10.7398 6.80504C10.9019 6.12653 10.8576 5.41504 10.6125 4.7619L9.811 2.62165C9.51156 1.82263 8.91875 1.16784 8.15335 0.790663C7.38795 0.413491 6.50754 0.34232 5.6915 0.591649C2.6885 1.5104 0.380248 4.30165 1.09075 7.61615C1.558 9.79665 2.45225 12.5336 4.14625 15.4456C5.84375 18.3646 7.78275 20.5206 9.44525 22.0361C11.9547 24.3199 15.5422 23.7494 17.8505 21.5969C18.4692 21.02 18.8447 20.2288 18.9003 19.3847C18.9559 18.5406 18.6875 17.707 18.1497 17.0539L16.6797 15.2689C16.2364 14.7291 15.6417 14.3343 14.9721 14.1354C14.3025 13.9364 13.5887 13.9423 12.9225 14.1524L10.4935 14.9171C9.86621 14.2698 9.3165 13.5515 8.8555 12.7769C8.41053 11.9935 8.06375 11.1583 7.823 10.2901V10.2919Z" fill="#F8F8F8"/>
</svg>
