<svg width="347" height="85" viewBox="0 0 347 85" fill="none" xmlns="http://www.w3.org/2000/svg">
<path fill-rule="evenodd" clip-rule="evenodd" d="M95.9051 5.33533C94.8128 3.69294 93.334 2.34671 91.5999 1.41603C89.8657 0.48534 87.9298 -0.00104731 85.9637 1.6932e-06H58.4787L73.6516 23.4532C74.742 25.0985 76.22 26.4479 77.9543 27.3814C79.6885 28.3149 81.6254 28.8037 83.5929 28.8044H111.078L95.9051 5.33533Z" fill="#ED1B2F"/>
<path fill-rule="evenodd" clip-rule="evenodd" d="M73.6674 41.3488C74.7606 39.7074 76.2396 38.3619 77.9735 37.4313C79.7075 36.5008 81.6429 36.0138 83.6087 36.0134H111.078L95.9209 59.4666C94.8279 61.1132 93.3472 62.4632 91.6102 63.3967C89.8732 64.3302 87.9336 64.8184 85.9637 64.8178H58.4787L73.6674 41.3488Z" fill="#ADC32B"/>
<path fill-rule="evenodd" clip-rule="evenodd" d="M61.782 41.9839C63.2799 39.6864 65.1621 37.6664 67.3453 36.0134H38.1692C36.2034 36.0138 34.268 36.5008 32.534 37.4313C30.8001 38.3619 29.3211 39.7074 28.2278 41.3488L3.05176e-05 84.9841H27.485C29.4538 84.9905 31.3933 84.5047 33.1287 83.5706C34.8642 82.6364 36.3411 81.2832 37.4264 79.6329L61.782 41.9839Z" fill="#006CB7"/>
<path fill-rule="evenodd" clip-rule="evenodd" d="M123.311 20.9126H134.232C140.554 20.9126 144.98 22.961 144.98 30.0906C144.98 36.6804 141.044 39.618 134.485 39.618H129.87V48.8754H123.311V20.9126ZM129.886 33.6158H133.426C134.217 33.6158 138.168 33.8063 138.168 30.2018C138.168 26.5973 135.007 26.6608 132.604 26.6608H129.902L129.886 33.6158Z" fill="white"/>
<path fill-rule="evenodd" clip-rule="evenodd" d="M155.032 27.0736V31.7261H166.317V37.8554H155.032V42.6667H166.712V48.8119H148.488V20.9285H166.712V27.0736H155.032Z" fill="white"/>
<path fill-rule="evenodd" clip-rule="evenodd" d="M196.014 48.8119H187.891L179.988 38.1095H178.85V48.8437H172.307V20.9126H184.54C189.534 20.9126 193.312 23.5485 193.312 29.4872C193.405 31.3579 192.813 33.1981 191.648 34.6607C190.484 36.1233 188.827 37.1072 186.99 37.4267L196.014 48.8119ZM178.739 33.3458H181.9C184.05 33.3458 186.452 32.9012 186.452 29.8683C186.452 26.8355 184.05 26.3908 181.9 26.3908H178.739V33.3458Z" fill="white"/>
<path fill-rule="evenodd" clip-rule="evenodd" d="M209.939 48.8119H203.379V27.0736H195.777V20.9285H217.525V27.0736H209.939V48.8119Z" fill="white"/>
<path fill-rule="evenodd" clip-rule="evenodd" d="M224.163 43.953L222.425 48.8119H215.47L225.175 20.9126H232.334L241.817 48.8119H234.879L233.298 43.953H224.163ZM228.747 29.5349L226.044 38.4271H231.497L228.747 29.5349Z" fill="white"/>
<path fill-rule="evenodd" clip-rule="evenodd" d="M248.171 20.9285H254.635L259.756 35.8388L265.177 20.9285H271.705L275.514 48.8119H268.955L267.105 32.7583H267.042L260.989 48.8119H258.381L252.581 32.7583H252.517L250.415 48.8119H243.888L248.171 20.9285Z" fill="white"/>
<path d="M286.324 20.9285H279.765V48.8119H286.324V20.9285Z" fill="white"/>
<path fill-rule="evenodd" clip-rule="evenodd" d="M292.093 20.9285H298.652L310.648 37.9666H310.727V20.9285H317.286V48.8119H310.727L298.716 31.7261H298.652V48.8119H292.093V20.9285Z" fill="white"/>
<path fill-rule="evenodd" clip-rule="evenodd" d="M329.33 43.953L327.591 48.8119H320.621L330.341 20.9126H337.501L346.984 48.8119H339.983L338.402 43.953H329.33ZM333.913 29.5349L331.195 38.4271H336.648L333.913 29.5349Z" fill="white"/>
</svg>
