<svg width="58" height="56" viewBox="0 0 58 56" fill="none" xmlns="http://www.w3.org/2000/svg">
<path fill-rule="evenodd" clip-rule="evenodd" d="M20.6757 3.50002C20.6757 2.74857 20.9742 2.0279 21.5056 1.49655C22.0369 0.965198 22.7576 0.666687 23.5091 0.666687H34.8424C35.5938 0.666687 36.3145 0.965198 36.8459 1.49655C37.3772 2.0279 37.6757 2.74857 37.6757 3.50002V9.16669H46.1757C46.5938 9.16685 47.0067 9.25955 47.3848 9.43812C47.7628 9.6167 48.0966 9.87673 48.3623 10.1996C48.628 10.5224 48.819 10.9 48.9215 11.3054C49.024 11.7107 49.0355 12.1337 48.9552 12.544L47.7171 18.885L43.9572 18.0492L29.7906 14.9014C29.3856 14.8113 28.9658 14.8113 28.5609 14.9014L14.3942 18.0464L10.6344 18.885L9.39622 12.544C9.31594 12.1337 9.32747 11.7107 9.42998 11.3054C9.53249 10.9 9.72344 10.5224 9.98912 10.1996C10.2548 9.87673 10.5886 9.6167 10.9667 9.43812C11.3447 9.25955 11.7576 9.16685 12.1757 9.16669H20.6757V3.50002ZM3.41505 26.1554L3.06089 26.2347C2.64084 26.3283 2.24765 26.5164 1.91114 26.7847C1.57463 27.0529 1.30365 27.3943 1.11876 27.7829C0.933877 28.1715 0.839946 28.5972 0.844097 29.0275C0.848248 29.4578 0.950372 29.8815 1.14272 30.2665L6.80939 41.5999C7.07508 42.1314 7.50121 42.566 8.02747 42.8421C8.55373 43.1182 9.15349 43.2219 9.74189 43.1384L29.1757 40.3617L48.6096 43.1384C49.198 43.2219 49.7977 43.1182 50.324 42.8421C50.8502 42.566 51.2764 42.1314 51.5421 41.5999L57.2087 30.2665C57.4011 29.8815 57.5032 29.4578 57.5073 29.0275C57.5115 28.5972 57.4176 28.1715 57.2327 27.7829C57.0478 27.3943 56.7768 27.0529 56.4403 26.7847C56.1038 26.5164 55.7106 26.3283 55.2906 26.2347L54.9364 26.1554C54.6434 26.182 54.348 26.1629 54.0609 26.0987L42.7276 23.5799L29.1757 20.568L15.6239 23.5799L4.29055 26.1015C4.00328 26.1648 3.70791 26.183 3.41505 26.1554ZM21.4351 47.7142C22.4007 46.6107 23.591 45.7264 24.9262 45.1206C26.2615 44.5147 27.7108 44.2013 29.1771 44.2013C30.6434 44.2013 32.0928 44.5147 33.428 45.1206C34.7633 45.7264 35.9536 46.6107 36.9192 47.7142L37.0184 47.8275C37.729 48.6404 38.7109 49.1671 39.7812 49.3094C40.8514 49.4517 41.9369 49.2 42.8352 48.601C44.2001 47.6915 45.7657 47.1276 47.397 46.9578C49.0283 46.788 50.6765 47.0174 52.1994 47.6264L55.7269 49.0345C56.4131 49.3213 56.9591 49.8664 57.2469 50.5522C57.5348 51.2379 57.5414 52.0094 57.2655 52.7001C56.9895 53.3907 56.453 53.9451 55.7719 54.2437C55.0907 54.5423 54.3195 54.5611 53.6246 54.296L50.0971 52.885C49.4269 52.6173 48.7018 52.5166 47.984 52.5916C47.2663 52.6666 46.5776 52.9151 45.9774 53.3157C43.9353 54.6769 41.468 55.2492 39.0352 54.926C36.6024 54.6028 34.3701 53.4061 32.7542 51.559L32.6551 51.4457C32.2213 50.9495 31.6864 50.5518 31.0863 50.2793C30.4862 50.0068 29.8348 49.8658 29.1757 49.8658C28.5167 49.8658 27.8652 50.0068 27.2651 50.2793C26.665 50.5518 26.1301 50.9495 25.6964 51.4457L25.5972 51.559C23.9813 53.4061 21.749 54.6028 19.3162 54.926C16.8835 55.2492 14.4161 54.6769 12.3741 53.3157C11.7738 52.9151 11.0851 52.6666 10.3674 52.5916C9.64969 52.5166 8.9245 52.6173 8.25439 52.885L4.72689 54.296C4.38012 54.4409 4.008 54.5154 3.63217 54.5151C3.25635 54.5148 2.88434 54.4398 2.5378 54.2943C2.19127 54.1488 1.87713 53.9359 1.61369 53.6679C1.35025 53.3998 1.14276 53.0821 1.00331 52.7331C0.863866 52.3841 0.795244 52.0108 0.801441 51.6351C0.807639 51.2593 0.888533 50.8885 1.03941 50.5443C1.1903 50.2001 1.40815 49.8893 1.68028 49.6301C1.95242 49.3709 2.27341 49.1685 2.62455 49.0345L6.15205 47.6264C7.67497 47.0174 9.32312 46.788 10.9544 46.9578C12.5858 47.1276 14.1513 47.6915 15.5162 48.601C16.4145 49.2 17.5 49.4517 18.5703 49.3094C19.6405 49.1671 20.6225 48.6404 21.3331 47.8275L21.4322 47.7142H21.4351Z" fill="#F8F8F8"/>
</svg>
